<svg width="1920" height="780" viewBox="0 0 1920 780" fill="none" xmlns="http://www.w3.org/2000/svg">
<g id="main frame">
<g id="circleBG">
<circle id="Ellipse 1" cx="960" cy="390" r="297.5" stroke="url(#paint0_linear_2_247)" stroke-width="5"/>
</g>
<g id="hi-word">
<g id="h-hi">
<path id="Vector" d="M957.064 368.725H939.029V337.31H912.315V368.725H894.18V293.48H912.315V323.348H939.029V293.48H957.064V368.725Z" fill="#00AA95"/>
</g>
<g id="i-hi">
<path id="Vector_2" d="M993.149 368.725H975.067V293.48H993.149V368.725Z" fill="#00AA95"/>
</g>
<g id="exclamatory">
<path id="Vector_3" d="M1010.69 360.941C1010.66 359.755 1010.89 358.577 1011.37 357.492C1011.84 356.406 1012.56 355.441 1013.45 354.664C1015.4 353.077 1017.84 352.21 1020.35 352.21C1022.86 352.21 1025.3 353.077 1027.24 354.664C1028.12 355.461 1028.81 356.432 1029.29 357.514C1029.77 358.595 1030.02 359.765 1030.02 360.947C1030.02 362.13 1029.77 363.299 1029.29 364.381C1028.81 365.463 1028.12 366.434 1027.24 367.231C1025.3 368.821 1022.86 369.69 1020.35 369.69C1017.84 369.69 1015.4 368.821 1013.45 367.231C1012.55 366.454 1011.84 365.486 1011.36 364.398C1010.88 363.31 1010.65 362.129 1010.69 360.941V360.941ZM1027.53 344.922H1013.43L1011.2 293.48H1029.72L1027.53 344.922Z" fill="#00AA95"/>
</g>
</g>
<g id="we-word">
<g id="w-we">
<path id="Vector_4" d="M809.576 459.044L818.207 411.868H836.184L820.218 487.1H801.415L791.335 444.209L781.468 487.1H762.711L746.692 411.868H764.728L773.326 459.044L783.69 411.868H799.087L809.576 459.044Z" fill="#00AA95"/>
</g>
<g id="e-we">
<path id="Vector_5" d="M895.212 455.181H866.693V473.157H900.384V487.113H848.558V411.867H900.483V425.869H866.693V441.742H895.212V455.181Z" fill="#00AA95"/>
</g>
</g>
<g id="are-word">
<g id="a-are">
<path id="Vector_6" d="M1045.27 473.052H1020.41L1016.07 487.106H996.694L1024.29 411.868H1041.35L1069.13 487.1H1049.66L1045.27 473.052ZM1024.76 459.051H1040.94L1032.83 432.953L1024.76 459.051Z" fill="#00AA95"/>
</g>
<g id="r-are">
<path id="Vector_7" d="M1107.86 460.492H1098.04V487.106H1079.9V411.867H1109.51C1118.44 411.867 1125.41 413.851 1130.44 417.82C1135.47 421.788 1137.98 427.381 1137.99 434.599C1137.99 439.824 1136.92 444.158 1134.8 447.602C1132.68 451.045 1129.38 453.834 1124.88 455.968L1140.56 486.325V487.106H1121.14L1107.86 460.492ZM1098.04 446.543H1109.51C1112.96 446.543 1115.55 445.637 1117.29 443.825C1119.03 442.013 1119.9 439.482 1119.9 436.232C1119.9 432.992 1119.02 430.439 1117.25 428.594C1115.49 426.748 1112.91 425.822 1109.5 425.822H1098.04V446.543Z" fill="#00AA95"/>
</g>
<g id="e-are">
<path id="Vector_8" d="M1200.89 455.174H1172.36V473.151H1206.03V487.106H1154.23V411.867H1206.15V425.869H1172.36V441.742H1200.89V455.174Z" fill="#00AA95"/>
</g>
</g>
</g>
<defs>
<linearGradient id="paint0_linear_2_247" x1="960" y1="90" x2="960" y2="690" gradientUnits="userSpaceOnUse">
<stop stop-color="#00AA95"/>
<stop offset="1" stop-color="#010101" stop-opacity="0"/>
</linearGradient>
</defs>
</svg>
