<svg width="1920" height="780" viewBox="0 0 1920 780" fill="none" xmlns="http://www.w3.org/2000/svg">
<g id="uppertree">
<g id="uppertree-word">
<g id="oneU">
<path id="Vector" d="M221 313.12H219.5V314.62V404.916C219.5 423.838 225.026 440.287 236.905 452.002C248.785 463.718 266.815 470.5 291.422 470.5C316.025 470.5 334.01 463.773 345.843 452.054C357.676 440.335 363.149 423.83 363.149 404.7V314.62V313.12H361.649H321.88H320.38V314.62V403.472C320.38 412.207 318.109 419.523 313.462 424.641C308.837 429.735 301.668 432.861 291.422 432.861C281.175 432.861 273.948 429.734 269.268 424.635C264.568 419.514 262.248 412.199 262.248 403.472V314.62V313.12H260.748H221Z" fill="#010101" stroke="#010101" stroke-width="3"/>
</g>
<g id="twoU">
<path id="Vector_2" d="M405.989 467.676H404.489V466.176V314.62V313.12H405.989H481.886C499.282 313.12 512.863 319.044 522.094 328.571C531.314 338.086 536.089 351.086 536.089 365.06C536.089 379.036 531.312 391.875 522.085 401.225C512.848 410.584 499.268 416.331 481.886 416.331H446.569V466.176V467.676H445.069H405.989ZM476.648 380.179C481.563 380.179 485.734 378.631 488.659 375.991C491.57 373.363 493.341 369.572 493.341 364.866V364.844C493.341 360.007 491.56 356.098 488.644 353.39C485.717 350.672 481.549 349.078 476.648 349.078H446.569V380.179H476.648Z" fill="#010101" stroke="#010101" stroke-width="3"/>
</g>
<g id="threeU">
<path id="Vector_3" d="M586.192 313.12H584.692V314.62V466.176V467.676H586.192H625.272H626.772V466.176V416.331H662.089C679.478 416.331 693.064 410.64 702.305 401.307C711.538 391.982 716.313 379.142 716.313 365.06C716.313 350.98 711.54 337.978 702.314 328.488C693.078 318.987 679.491 313.12 662.089 313.12H586.192ZM626.772 380.158V349.078H656.872C666.588 349.078 673.544 355.543 673.544 364.844C673.544 369.552 671.777 373.343 668.872 375.97C665.953 378.609 661.787 380.158 656.872 380.158H626.772Z" fill="#010101" stroke="#010101" stroke-width="3"/>
</g>
<g id="fourU">
<path id="Vector_4" d="M755.057 313.12H753.557V314.62V466.176V467.676H755.057H866.176H867.676V466.176V433.24V431.74H866.176H795.638V407.472H864.581H866.081V405.972V372.798V371.298H864.581H795.638V349.078H866.176H867.676V347.578V314.62V313.12H866.176H755.057Z" fill="#010101" stroke="#010101" stroke-width="3"/>
</g>
<g id="fiveU">
<path id="Vector_5" d="M1017.9 411.309C1032.02 405.642 1047.43 391.146 1047.43 365.06C1047.43 350.632 1042.53 337.626 1033.24 328.221C1023.94 318.809 1010.36 313.12 993.202 313.12H917.327H915.827V314.62V466.176V467.676H917.327H956.407H957.907V466.176V416.331H975.458L1000.5 466.843L1000.92 467.676H1001.85H1046.66H1049.21L1047.97 465.448L1017.9 411.309ZM957.907 380.158V349.078H987.296C996.929 349.078 1004.66 355.187 1004.66 364.607C1004.66 374.029 996.926 380.158 987.296 380.158H957.907Z" fill="#010101" stroke="#010101" stroke-width="3"/>
</g>
<g id="sixU">
<path id="Vector_6" d="M1083.55 348.656V350.156H1085.05H1126.04V466.133V467.633H1127.54H1166.62H1168.12V466.133V350.156H1208.89H1210.39V348.656V314.62V313.12H1208.89H1085.05H1083.55V314.62V348.656Z" fill="#010101" stroke="#010101" stroke-width="3"/>
</g>
<g id="sevenU">
<path id="Vector_7" d="M1356.52 411.309C1370.64 405.642 1386.04 391.146 1386.04 365.06C1386.04 350.633 1381.15 337.626 1371.87 328.221C1362.57 318.809 1348.99 313.12 1331.84 313.12H1255.94H1254.44V314.62V466.176V467.676H1255.94H1295.02H1296.52V466.176V416.331H1314.09L1339.12 466.842L1339.53 467.676H1340.46H1385.27H1387.82L1386.58 465.448L1356.52 411.309ZM1296.52 380.158V349.078H1325.93C1335.54 349.078 1343.29 355.188 1343.29 364.607C1343.29 374.028 1335.54 380.158 1325.93 380.158H1296.52Z" fill="#010101" stroke="#010101" stroke-width="3"/>
</g>
<g id="eightU">
<path id="Vector_8" d="M1428.88 467.676H1427.38V466.176V314.62V313.12H1428.88H1540H1541.5V314.62V347.578V349.078H1540H1469.5V371.298H1538.4H1539.9V372.798V405.972V407.472H1538.4H1469.5V431.74H1540H1541.5V433.24V466.176V467.676H1540H1428.88Z" fill="#010101" stroke="#010101" stroke-width="3"/>
</g>
<g id="nineU">
<path id="Vector_9" d="M1593.24 313.12H1591.74V314.62V466.176V467.676H1593.24H1698.71H1700.21V466.176V433.24V431.74H1698.71H1633.86V407.472H1697.03H1698.53V405.972V372.798V371.298H1697.03H1633.86V349.078H1698.67H1700.17V347.578V314.62V313.12H1698.67H1593.24Z" fill="#010101" stroke="#010101" stroke-width="3"/>
</g>
</g>
<g id="right-arw">
<path id="Line 1" d="M1546.12 227.464C1544.17 225.512 1541 225.512 1539.05 227.464L1507.23 259.284C1505.28 261.237 1505.28 264.403 1507.23 266.355C1509.18 268.308 1512.35 268.308 1514.3 266.355L1542.59 238.071L1570.87 266.355C1572.82 268.308 1575.99 268.308 1577.94 266.355C1579.89 264.403 1579.89 261.237 1577.94 259.284L1546.12 227.464ZM1537.59 231L1537.59 549L1547.59 549L1547.59 231L1537.59 231Z" fill="black"/>
</g>
<g id="left-arw">
<path id="Line 2" d="M402.55 552.536C404.503 554.488 407.669 554.488 409.621 552.536L441.441 520.716C443.394 518.763 443.394 515.597 441.441 513.645C439.489 511.692 436.323 511.692 434.37 513.645L406.086 541.929L377.802 513.645C375.849 511.692 372.683 511.692 370.73 513.645C368.778 515.597 368.778 518.763 370.73 520.716L402.55 552.536ZM411.086 549L411.086 231L401.086 231L401.086 549L411.086 549Z" fill="black"/>
</g>
</g>
</svg>
